<svg xmlns="http://www.w3.org/2000/svg" width="158.681" height="154.738" viewBox="0 0 158.681 154.738"><g transform="translate(0)"><path d="M202.91,576.92l20.517,35.688a.726.726,0,0,1-.6,1.121H210.668a1.578,1.578,0,0,1-1.552-.863l-14.827-25.86-8.62,10.086v15.861a.773.773,0,0,1-.777.776h-10.86a.76.76,0,0,1-.69-.776V553.385a.76.76,0,0,1,.69-.775h10.86a.773.773,0,0,1,.777.775v25.346l21.9-25.259a1.971,1.971,0,0,1,1.639-.862h12.671a.782.782,0,0,1,.6,1.293Z" transform="translate(-173.342 -460.198)" fill="#fff"/><path d="M263.307,612.522a1.155,1.155,0,0,1-.947,1.207,16.4,16.4,0,0,1-4.4.517c-7.673,0-12.587-3.619-12.587-12.5V553.386a.773.773,0,0,1,.776-.776h10.431a.773.773,0,0,1,.775.776v46.636c0,1.983.517,3.448,3.449,3.448a11.922,11.922,0,0,0,1.552-.085.741.741,0,0,1,.947.773Z" transform="translate(-192.799 -460.198)" fill="#fff"/><path d="M298.092,586.585a8.535,8.535,0,0,0-12.069,0c-2.414,2.587-3.017,6.467-3.017,10.432s.6,7.759,3.017,10.344a8.531,8.531,0,0,0,12.069,0c2.328-2.585,3.017-6.379,3.017-10.344s-.689-7.845-3.017-10.432m9.827,26.984a21.508,21.508,0,0,1-31.723,0c-3.362-4.224-5.431-8.88-5.431-16.552s2.069-12.414,5.431-16.637a21.5,21.5,0,0,1,31.723,0c3.363,4.223,5.432,8.964,5.432,16.637s-2.069,12.328-5.432,16.552" transform="translate(-199.657 -465.813)" fill="#fff"/><path d="M363.054,591.4c0-6.723-2.155-13.449-9.138-13.449s-9.138,6.726-9.138,13.449,2.155,13.189,9.138,13.189,9.138-6.465,9.138-13.189m12.155,0c0,13.1-6.982,23.448-19.224,23.448a14.765,14.765,0,0,1-11.638-5.259l-.518,3.362a.822.822,0,0,1-.947.776H334a.773.773,0,0,1-.776-.776V553.385a.835.835,0,0,1,.776-.776h10.431a.774.774,0,0,1,.775.776v18.361a15.775,15.775,0,0,1,10.862-3.965c12.328,0,19.139,9.57,19.139,23.621" transform="translate(-216.528 -460.198)" fill="#fff"/><path d="M303.4,495.52l-17.582-30.641,16.736-23.543a2.772,2.772,0,0,0,.3-2.749,2.328,2.328,0,0,0-.995-1.065l-20.674-11.248-.072-.037a2.281,2.281,0,0,0-.443-.164,1.136,1.136,0,0,0-.178-.032,2.457,2.457,0,0,0-.438-.041,2.225,2.225,0,0,0-.316.023l-11.278,1.585a3.561,3.561,0,0,0-.938.264.981.981,0,0,0-.094.036,3.58,3.58,0,0,0-.532.305c-.029.02-.1.075-.126.1l-.1.08c-.07.053-.119.092-.166.134-.108.1-.207.2-.3.307l-.057.058.008-.009-.041.045c-.125.142-.258.312-.382.482l-5.707,7.893-11.768-6.4c-.018-.009-.076-.04-.093-.047a2.21,2.21,0,0,0-.422-.155,1.016,1.016,0,0,0-.178-.031,2.311,2.311,0,0,0-.423-.04,2.187,2.187,0,0,0-.313.022l-9.675,1.36a2.315,2.315,0,0,0-.665.2,2.213,2.213,0,0,0-.219.121l-.027.016c-.037.021-.086.05-.118.072a2.787,2.787,0,0,0-.271.215,2.692,2.692,0,0,0-.228.231c-.019.021-.071.085-.088.107-.061.078-.088.112-.113.148a2.973,2.973,0,0,0-.186.3,2.9,2.9,0,0,0-.171.381c-.005.013-.01.027-.015.041a2.875,2.875,0,0,0-.162.934L234.782,492a2.709,2.709,0,0,0,.082.662,2.391,2.391,0,0,0,1.153,1.518l20.681,11.25.03.016a2.171,2.171,0,0,0,1,.248,2.2,2.2,0,0,0,.307-.023l9.677-1.36a2.826,2.826,0,0,0,2.336-2.789l.02-10.87L288.73,500.8a1.213,1.213,0,0,0,.228.094,2.857,2.857,0,0,0,1.151.23,3.9,3.9,0,0,0,.536-.039l10.829-1.522a2.72,2.72,0,0,0,2.038-1.585,2.548,2.548,0,0,0-.112-2.462" transform="translate(-189.937 -426)" fill="#fff"/><path d="M297.87,446.57l11.3-1.549-17.763,24.99,18.48,32.118-10.83,1.523a.629.629,0,0,1-.786-.36l-13.628-23.808-8.474,11.856-.042,15.534-9.617,1.326.046-57.23,9.69-1.349-.049,26.292,20.725-28.636c.388-.551.607-.661.946-.707" transform="translate(-198.508 -431.138)" fill="#d85448"/></g></svg>