<svg id="Group_1" data-name="Group 1" xmlns="http://www.w3.org/2000/svg" width="82.468" height="32.393" viewBox="0 0 82.468 32.393">
  <path id="Path_1" data-name="Path 1" d="M135.51,36.584l10.662,18.548a.377.377,0,0,1-.313.583h-6.317a.818.818,0,0,1-.806-.449l-7.707-13.44-4.48,5.242v8.244a.4.4,0,0,1-.4.4H120.5a.4.4,0,0,1-.357-.4V24.352a.394.394,0,0,1,.357-.4h5.645a.4.4,0,0,1,.4.4V37.524L137.929,24.4a1.024,1.024,0,0,1,.852-.449h6.586a.406.406,0,0,1,.313.673Z" transform="translate(-120.144 -23.948)" fill="#d85448"/>
  <path id="Path_2" data-name="Path 2" d="M172.652,55.086a.6.6,0,0,1-.492.626,8.49,8.49,0,0,1-2.285.269c-3.987,0-6.541-1.881-6.541-6.5V24.352a.4.4,0,0,1,.4-.4h5.421a.4.4,0,0,1,.4.4V48.589c0,1.031.269,1.792,1.792,1.792a6.08,6.08,0,0,0,.807-.045.386.386,0,0,1,.492.4Z" transform="translate(-136.008 -23.948)" fill="#d85448"/>
  <path id="Path_3" data-name="Path 3" d="M197.865,57.29a11.178,11.178,0,0,1-16.488,0,12.627,12.627,0,0,1-2.822-8.6,12.747,12.747,0,0,1,2.822-8.646,11.177,11.177,0,0,1,16.488,0,12.748,12.748,0,0,1,2.823,8.646,12.627,12.627,0,0,1-2.823,8.6m-5.107-14.024a4.437,4.437,0,0,0-6.272,0c-1.255,1.345-1.568,3.361-1.568,5.421s.314,4.033,1.568,5.376a4.434,4.434,0,0,0,6.272,0,7.919,7.919,0,0,0,1.567-5.376,8.045,8.045,0,0,0-1.567-5.421" transform="translate(-141.6 -28.526)" fill="#d85448"/>
  <path id="Path_4" data-name="Path 4" d="M237.824,44.111c0,6.809-3.628,12.185-9.991,12.185a7.671,7.671,0,0,1-6.048-2.733l-.27,1.747a.427.427,0,0,1-.492.4h-4.615a.4.4,0,0,1-.4-.4V24.351a.433.433,0,0,1,.4-.4h5.421a.4.4,0,0,1,.4.4v9.543a8.2,8.2,0,0,1,5.645-2.061c6.406,0,9.946,4.973,9.946,12.276m-6.317,0c0-3.494-1.119-6.99-4.748-6.99s-4.75,3.5-4.75,6.99,1.12,6.854,4.75,6.854,4.748-3.36,4.748-6.854" transform="translate(-155.356 -23.948)" fill="#d85448"/>
</svg>
